<?xml version="1.0" encoding="UTF-8" standalone="no"?>
<svg
   xmlns:dc="http://purl.org/dc/elements/1.1/"
   xmlns:cc="http://creativecommons.org/ns#"
   xmlns:rdf="http://www.w3.org/1999/02/22-rdf-syntax-ns#"
   xmlns:svg="http://www.w3.org/2000/svg"
   xmlns="http://www.w3.org/2000/svg"
   xmlns:sodipodi="http://sodipodi.sourceforge.net/DTD/sodipodi-0.dtd"
   xmlns:inkscape="http://www.inkscape.org/namespaces/inkscape"
   width="169.18155mm"
   height="43.65625mm"
   viewBox="0 0 169.18155 43.65625"
   version="1.1"
   id="svg3821"
   inkscape:version="0.92.4 (5da689c313, 2019-01-14)"
   sodipodi:docname="logo.svg"
   inkscape:export-filename="logo.png"
   inkscape:export-xdpi="96"
   inkscape:export-ydpi="96">
  <defs
     id="defs3815" />
  <sodipodi:namedview
     id="base"
     pagecolor="#ffffff"
     bordercolor="#666666"
     borderopacity="1.0"
     inkscape:pageopacity="0"
     inkscape:pageshadow="2"
     inkscape:zoom="1.1594791"
     inkscape:cx="374.37732"
     inkscape:cy="185.25695"
     inkscape:document-units="mm"
     inkscape:current-layer="g871"
     showgrid="false"
     inkscape:window-width="2560"
     inkscape:window-height="1017"
     inkscape:window-x="-8"
     inkscape:window-y="-8"
     inkscape:window-maximized="1"
     inkscape:document-rotation="0" />
  <metadata
     id="metadata3818">
    <rdf:RDF>
      <cc:Work
         rdf:about="">
        <dc:format>image/svg+xml</dc:format>
        <dc:type
           rdf:resource="http://purl.org/dc/dcmitype/StillImage" />
        <dc:title />
        <cc:license
           rdf:resource="http://creativecommons.org/publicdomain/zero/1.0/" />
        <dc:date>2021/08/04</dc:date>
        <dc:creator>
          <cc:Agent>
            <dc:title>Brendan Jurd</dc:title>
          </cc:Agent>
        </dc:creator>
      </cc:Work>
      <cc:License
         rdf:about="http://creativecommons.org/publicdomain/zero/1.0/">
        <cc:permits
           rdf:resource="http://creativecommons.org/ns#Reproduction" />
        <cc:permits
           rdf:resource="http://creativecommons.org/ns#Distribution" />
        <cc:permits
           rdf:resource="http://creativecommons.org/ns#DerivativeWorks" />
      </cc:License>
    </rdf:RDF>
  </metadata>
  <g
     inkscape:label="Layer 1"
     inkscape:groupmode="layer"
     id="layer1"
     transform="translate(-17.575893,-18.998503)">
    <g
       id="g871"
       transform="translate(-21.965123,-2.4518183)"
       inkscape:export-xdpi="180.14684"
       inkscape:export-ydpi="180.14684">
      <path
         inkscape:connector-curvature="0"
         id="path1386-1-6-8"
         d="m 163.51796,28.150441 a 18.171912,15.127886 0 0 0 -18.1718,15.12826 18.171912,15.127886 0 0 0 18.1718,15.127797 18.171912,15.127886 0 0 0 18.17182,-15.127797 18.171912,15.127886 0 0 0 -18.17182,-15.12826 z m 0,5.304973 a 11.799942,9.8233022 0 0 1 11.79996,9.823287 11.799942,9.8233022 0 0 1 -11.79996,9.823301 11.799942,9.8233022 0 0 1 -11.79994,-9.823301 11.799942,9.8233022 0 0 1 11.79994,-9.823287 z"
         style="opacity:1;fill:#407daf;fill-opacity:1;stroke:none;stroke-width:0.76499999;stroke-linecap:round;stroke-linejoin:bevel;stroke-miterlimit:4;stroke-dasharray:none;stroke-dashoffset:0;stroke-opacity:1;paint-order:stroke fill markers" />
      <rect
         transform="rotate(15.768155)"
         ry="2.064862"
         rx="2.064862"
         y="-22.13731"
         x="167.35535"
         height="38.703815"
         width="3.5399821"
         id="rect1404-8-1-7"
         style="opacity:1;fill:#ffdf59;fill-opacity:1;stroke:none;stroke-width:0.76499999;stroke-linecap:round;stroke-linejoin:bevel;stroke-miterlimit:4;stroke-dasharray:none;stroke-dashoffset:0;stroke-opacity:1;paint-order:stroke fill markers" />
      <path
         inkscape:connector-curvature="0"
         id="path4550"
         style="font-style:normal;font-variant:normal;font-weight:normal;font-stretch:normal;font-size:28.86180878px;line-height:1.25;font-family:'Sigmar One';-inkscape-font-specification:'Sigmar One, Normal';font-variant-ligatures:normal;font-variant-caps:normal;font-variant-numeric:normal;font-feature-settings:normal;text-align:start;letter-spacing:0px;word-spacing:0px;writing-mode:lr-tb;text-anchor:start;fill:#407daf;fill-opacity:1;stroke:none;stroke-width:0.72154772"
         d="m 48.127984,51.994701 q -0.490651,0 -0.63496,-0.63496 -0.144309,-0.31748 -0.144309,-1.154472 0,-2.510978 -0.05772,-4.473581 -0.08659,-2.828457 -0.08659,-5.974394 v -6.349598 q 0,-0.259756 0.230895,-0.490651 0.259756,-0.259756 0.519512,-0.259756 l 3.319108,0.02886 q 0.923578,0.02886 2.424392,0.02886 2.164636,0 3.34797,-0.02886 l 1.067887,-0.02886 q 1.731708,-0.05772 2.857319,-0.05772 1.818294,0 3.463417,0.519513 1.933741,0.577236 3.145937,1.991465 1.356507,1.529676 1.356507,4.127238 0,4.386995 -2.222361,6.349598 -1.962603,1.847156 -5.858947,1.847156 h -3.954068 q 0.02886,0.663822 0.02886,1.414229 0,0.259756 -0.02886,0.63496 0,0.346341 0,0.952439 0,0.95244 -0.404065,1.212196 -0.31748,0.259756 -1.183335,0.259756 -1.269919,0 -1.76057,0.02886 -1.991465,0 -3.174799,0.05772 z m 10.332528,-8.023583 q 0.606098,0 0.894716,-1.154472 0.230894,-0.779269 0.346341,-2.308945 0.05772,-0.836992 0.05772,-1.876018 v -0.317479 q 0,-0.461789 -0.144309,-1.385367 -0.115447,-0.519513 -0.259756,-0.808131 -0.144309,-0.31748 -0.375204,-0.519513 -0.230894,-0.259756 -0.519512,-0.259756 -0.144309,0 -0.259757,0.115447 -0.08658,0.115448 -0.173171,0.288619 -0.317479,0.519512 -0.577236,2.308944 -0.08658,0.519513 -0.144309,1.558538 -0.144309,1.587399 -0.144309,4.242686 0,0 0.02886,0.02886 0.02886,0.02886 0.115447,0.05772 l 0.346342,0.02886 z" />
      <path
         inkscape:connector-curvature="0"
         id="path4552"
         style="font-style:normal;font-variant:normal;font-weight:normal;font-stretch:normal;font-size:28.86180878px;line-height:1.25;font-family:'Sigmar One';-inkscape-font-specification:'Sigmar One, Normal';font-variant-ligatures:normal;font-variant-caps:normal;font-variant-numeric:normal;font-feature-settings:normal;text-align:start;letter-spacing:0px;word-spacing:0px;writing-mode:lr-tb;text-anchor:start;fill:#ffdf59;fill-opacity:1;stroke:none;stroke-width:0.72154772"
         d="m 83.804056,54.592264 q 0,0 -0.0577,0 -0.0289,0 -0.0577,0.02886 l -0.0866,0.02886 q -0.0866,0 -0.0866,-0.05772 -0.11544,-0.05772 -0.14431,-0.173171 -1.01016,-0.173171 -1.29878,-0.288618 l -1.01016,-0.288618 h -0.14431 q -0.14431,0 -0.23089,-0.05772 -0.25976,0 -0.43293,-0.05772 -0.2309,-0.02886 -0.75041,-0.202032 -0.51951,-0.173171 -0.75041,-0.259757 -0.46178,-0.144309 -1.32764,-0.49065 -0.40406,-0.173171 -0.6061,-0.230895 l -0.66382,-0.404065 q -0.23089,-0.173171 -0.23089,-0.346342 0,-0.548374 0.25975,-1.154472 0.0866,-0.202033 0.2309,-0.490651 0.17317,-0.288618 0.31748,-0.663821 0.0577,-0.173171 0.31748,-0.519513 0.69268,-1.154472 0.7504,-1.26992 0.11545,-0.31748 0.11545,-0.577236 0,-0.432927 -0.46179,-0.894716 -0.43292,-0.432927 -0.43292,-0.836992 -0.14431,0 -0.14431,0.02886 h -0.0577 -0.0289 q -0.0577,-0.05772 -0.0577,-0.115447 -0.92358,-1.154472 -1.87602,-2.799595 -1.2122,-1.90488 -1.9626,-3.463417 -0.2309,-0.346342 -0.54838,-1.241058 -0.3752,-0.779269 -0.63496,-1.5874 -0.31748,-0.894716 -0.31748,-1.154472 0,-0.288618 0.63496,-0.750407 0.25976,-0.173171 0.6061,-0.346342 0.34634,-0.17317 0.51951,-0.259756 0.14431,-0.02886 1.2122,-0.31748 l 0.40406,-0.144309 q 0.11545,-0.08658 0.25976,-0.08658 0.17317,0 0.54838,-0.115447 0.83699,-0.173171 0.9813,-0.230895 l 1.03902,-0.230894 q 0.86586,-0.288619 1.01017,-0.31748 l 0.0577,-0.02886 h 0.0866 0.0577 q 0.6061,0 0.80813,0.288618 0.17317,0.173171 0.57723,0.808131 0.0577,0.17317 0.20204,0.404065 0.17317,0.230894 0.23089,0.288618 l 0.2309,0.31748 0.20203,0.230894 q 0.11545,0.144309 0.23089,0.346342 0.11545,0.202033 0.25976,0.432927 0.75041,1.327643 1.15447,1.876018 0.25976,0.375203 0.43293,0.375203 0.0866,0 0.28862,-0.31748 0.25975,-0.404065 0.95244,-1.847155 0.3752,-0.923578 0.894714,-2.106912 0.25976,-0.519513 0.28862,-0.63496 0.11545,-0.519513 0.25976,-0.663822 0.14431,-0.230894 0.51951,-0.230894 0.92358,0 2.42439,0.375203 1.47195,0.432927 2.82846,1.125611 1.38538,0.750407 1.87603,1.385367 0,0.779268 -0.37521,1.44309 l -2.65529,5.858947 -2.59757,5.887809 -0.11544,0.02886 q -0.0289,0 -0.0866,0.05772 -1.90488,3.723173 -3.492284,6.695939 -0.0577,0.115448 -0.34634,0.115448 z" />
      <path
         inkscape:connector-curvature="0"
         id="path4554"
         style="font-style:normal;font-variant:normal;font-weight:normal;font-stretch:normal;font-size:28.86180878px;line-height:1.25;font-family:'Sigmar One';-inkscape-font-specification:'Sigmar One, Normal';font-variant-ligatures:normal;font-variant-caps:normal;font-variant-numeric:normal;font-feature-settings:normal;text-align:start;letter-spacing:0px;word-spacing:0px;writing-mode:lr-tb;text-anchor:start;fill:#d0633c;fill-opacity:1;stroke:none;stroke-width:0.72154772"
         d="m 96.8525,51.994701 q -0.49065,0 -0.63496,-0.63496 -0.14431,-0.31748 -0.14431,-1.154472 0,-2.510978 -0.0577,-4.473581 -0.0866,-2.828457 -0.0866,-5.974394 v -6.349598 q 0,-0.259756 0.23089,-0.490651 0.25976,-0.259756 0.51952,-0.259756 l 3.3191,0.02886 q 0.92357,0.02886 2.4244,0.02886 2.16462,0 3.34797,-0.02886 l 1.06788,-0.02886 q 1.73171,-0.05772 2.85731,-0.05772 1.8183,0 3.46343,0.519513 1.93374,0.577236 3.14593,1.991465 1.35651,1.529676 1.35651,4.127238 0,4.386995 -2.22236,6.349598 -1.96261,1.847156 -5.85895,1.847156 h -3.95406 q 0.0289,0.663822 0.0289,1.414229 0,0.259756 -0.0289,0.63496 0,0.346341 0,0.952439 0,0.95244 -0.40407,1.212196 -0.31748,0.259756 -1.18333,0.259756 -1.26992,0 -1.76057,0.02886 -1.99147,0 -3.1748,0.05772 z m 10.33252,-8.023583 q 0.6061,0 0.89472,-1.154472 0.23088,-0.779269 0.34634,-2.308945 0.0577,-0.836992 0.0577,-1.876018 v -0.317479 q 0,-0.461789 -0.14431,-1.385367 -0.11545,-0.519513 -0.25976,-0.808131 -0.14431,-0.31748 -0.3752,-0.519513 -0.2309,-0.259756 -0.51952,-0.259756 -0.1443,0 -0.25975,0.115447 -0.0866,0.115448 -0.17317,0.288619 -0.31748,0.519512 -0.57724,2.308944 -0.0866,0.519513 -0.14431,1.558538 -0.14431,1.587399 -0.14431,4.242686 0,0 0.0289,0.02886 0.0289,0.02886 0.11545,0.05772 l 0.34634,0.02886 z" />
      <path
         inkscape:connector-curvature="0"
         id="path4556"
         style="font-style:normal;font-variant:normal;font-weight:normal;font-stretch:normal;font-size:28.86180878px;line-height:1.25;font-family:'Sigmar One';-inkscape-font-specification:'Sigmar One, Normal';font-variant-ligatures:normal;font-variant-caps:normal;font-variant-numeric:normal;font-feature-settings:normal;text-align:start;letter-spacing:0px;word-spacing:0px;writing-mode:lr-tb;text-anchor:start;fill:#d0633c;fill-opacity:1;stroke:none;stroke-width:0.72154772"
         d="m 135.73223,53.004864 q -0.11545,0 -0.20203,-0.02886 -0.43293,-0.259756 -0.72155,-0.577236 -0.0866,-0.144309 -0.11544,-0.144309 -0.0289,-0.05772 -0.0866,-0.05772 l -0.0577,-0.02886 q -0.11545,-0.115447 -0.11545,-0.115447 l -2.45325,-3.636588 q -0.17318,-0.375204 -0.49066,-0.808131 -0.20203,-0.202033 -0.34634,-0.432927 -0.11544,-0.173171 -0.23089,-0.173171 -0.0866,0 -0.14431,0.08658 -0.0289,0.08659 -0.0577,0.230895 -0.0866,0.779269 -0.0866,2.106912 0,1.269919 -0.14431,2.049188 -0.0866,0.375204 -0.25975,0.375204 h -0.17318 q -0.0577,-0.02886 -0.11544,-0.02886 -0.0289,-0.02886 -0.0289,-0.02886 -1.01017,0.08659 -3.03049,0.202033 -1.96261,0.115447 -3.00163,0.115447 -0.28862,0 -0.46179,-0.05772 h -0.63496 -0.51951 -0.25976 l -1.03903,-0.346342 -0.0866,-0.230895 q 0,-0.02886 -0.0289,-0.115447 0,-0.08658 0,-0.230894 0,-0.173171 -0.0577,-0.63496 -0.14431,-1.760571 -0.11544,-1.385367 -0.0577,-0.750407 -0.20204,-2.597563 l -0.0866,-1.067887 q 0,-0.519512 -0.0289,-0.923578 -0.0289,-0.404065 -0.0577,-0.692683 l -0.0577,-0.63496 q -0.0866,-1.183334 -0.0866,-2.222359 0,-0.02886 0,-0.08658 0.0289,-0.05772 0.0289,-0.230895 0.0577,-0.173171 0.0577,-0.548374 l 0.0289,-0.519513 0.0289,-0.346342 q 0,-0.606098 -0.0577,-1.76057 -0.11545,-0.721545 -0.11545,-1.847156 0,-1.616261 0.20203,-2.366668 0.25976,-1.039025 0.86586,-1.039025 3.26138,0 6.63822,0.08658 0.7504,0 2.25122,0.05772 l 1.12561,0.02886 q 2.30894,0.05772 3.20366,0.05772 3.72317,0.173171 5.62805,1.876018 0.86585,0.721545 1.26992,1.731708 0.43293,1.010164 0.43293,2.164636 0,1.327643 -0.49065,2.453254 -0.40407,0.894716 -1.15448,1.645123 -0.72154,0.721545 -1.64512,1.154472 0.17317,0.08659 0.46179,0.375204 0.11545,0.144309 0.40406,0.375203 l 0.40407,0.288618 q 0.0866,0.144309 0.20203,0.288618 0.11545,0.115448 0.2309,0.259757 l 1.3565,1.673985 q 0.92358,1.183334 1.18334,1.731708 0.20203,0.375204 0.20203,0.577236 0,0.288618 -0.2309,0.519513 -0.23089,0.230894 -0.69268,0.577236 -0.34634,0.259756 -0.80813,0.490651 -0.43293,0.230894 -0.66382,0.432927 l -1.06789,0.577236 q -0.57723,0.31748 -1.24106,0.548375 -0.0289,0 -0.0866,0.02886 -0.0289,0.02886 -0.11545,0.05772 -0.17317,0.08658 -0.95244,0.31748 -0.14431,0.08658 -0.49065,0.144309 -0.0866,0.05772 -0.20203,0.08659 -0.11545,0.02886 -0.17317,0.02886 h -0.1443 q -0.0289,0.144309 -0.11545,0.144309 h -0.0866 z m -4.73334,-10.188218 q 0.89472,0 1.41423,-0.894716 0.49065,-0.808131 0.54838,-1.847156 0.0577,-0.606098 0.0577,-1.443091 v -0.317479 q 0,-0.663822 -0.23089,-1.385367 -0.2309,-0.923578 -0.95244,-1.327644 -0.31748,-0.259756 -0.837,-0.259756 -0.14431,0 -0.23089,0.346342 -0.25976,0.63496 -0.28862,2.020327 -0.11545,0.577236 -0.11545,1.356505 l -0.0289,0.865854 q -0.0577,1.673985 -0.0577,2.770733 0,0.02886 0.0289,0.05772 0.0289,0.02886 0.0577,0.02886 l 0.20204,0.02886 z" />
      <path
         inkscape:connector-curvature="0"
         id="path4560"
         style="font-style:normal;font-variant:normal;font-weight:normal;font-stretch:normal;font-size:28.86180878px;line-height:1.25;font-family:'Sigmar One';-inkscape-font-specification:'Sigmar One, Normal';font-variant-ligatures:normal;font-variant-caps:normal;font-variant-numeric:normal;font-feature-settings:normal;text-align:start;letter-spacing:0px;word-spacing:0px;writing-mode:lr-tb;text-anchor:start;fill:#d0633c;fill-opacity:1;stroke:none;stroke-width:0.72154772"
         d="m 193.26631,52.716246 q -1.24106,0.144309 -2.25122,0.144309 -3.03049,0 -5.54147,-1.067887 l -1.29878,-0.577236 q -0.0289,-0.02886 -0.0289,-0.144309 l 0.0577,-0.63496 q 0.0577,-0.404065 0.11545,-0.577236 0,-0.404065 0.0289,-0.606098 0,-0.548374 0.11545,-1.010163 0,-0.346342 0.0289,-0.432927 0.0289,-0.08659 0.0289,-0.144309 0.0289,-0.05772 0.0289,0 1.52968,0.548374 2.36667,0.663821 1.01016,0.202033 2.30894,0.202033 0.57724,0 0.89472,-0.836993 0.0866,-0.144309 0.20203,-0.663821 0.14431,-0.577236 0.14431,-0.577236 0.0289,-0.288618 0.0289,-1.096749 0,-1.241058 0.0577,-2.07805 0.0289,-0.577237 0.0289,-1.645123 l 0.0289,-1.327644 v -1.241057 l -0.0289,-5.945533 q 0,-0.173171 0.0866,-0.230895 0.11545,-0.05772 0.31748,-0.05772 l 3.00163,-0.02886 h 2.88618 2.7996 q 0.43293,0 0.66382,0.05772 0.25976,0.05772 0.43293,0.259756 0.17317,0.288618 0.20203,0.63496 0.0866,0.865854 0.0866,1.212196 v 5.628052 0.230895 q -0.0289,0.05772 -0.0289,0.230894 0,0.173171 -0.0289,0.288618 -0.0289,0.173171 -0.0289,0.346342 0.0289,0.173171 0,0.346342 -0.0289,0.230894 -0.0289,0.663821 v 0.577237 l -0.0289,0.259756 q 0,1.154472 -0.0577,1.933741 -0.0289,0.779269 -0.20203,1.558538 -0.43293,2.020326 -1.61626,3.117075 -1.38537,1.26992 -3.75204,2.106912 -1.24105,0.346342 -2.02032,0.461789 z" />
    </g>
  </g>
</svg>
